<?xml version="1.0" encoding="UTF-8"?>
<svg width="64" height="64" viewBox="0 0 64 64" xmlns="http://www.w3.org/2000/svg" role="img" aria-label="Ride Alliance">
  <defs>
    <linearGradient id="raTileBg" x1="0" y1="0" x2="0" y2="1">
      <stop offset="0%" stop-color="#0A4A8A"/>
      <stop offset="100%" stop-color="#003B76"/>
    </linearGradient>
    <linearGradient id="raPin" x1="0" y1="0" x2="0" y2="1">
      <stop offset="0%" stop-color="#FFE352"/>
      <stop offset="60%" stop-color="#FFD200"/>
      <stop offset="100%" stop-color="#E6A700"/>
    </linearGradient>
    <radialGradient id="raPinHole" cx="50%" cy="42%" r="55%">
      <stop offset="0%" stop-color="#3A4046"/>
      <stop offset="100%" stop-color="#1B1F24"/>
    </radialGradient>
    <filter id="raPinShadow" x="-30%" y="-20%" width="160%" height="160%">
      <feGaussianBlur in="SourceAlpha" stdDeviation="1.3"/>
      <feOffset dy="1.4" result="off"/>
      <feComponentTransfer><feFuncA type="linear" slope="0.55"/></feComponentTransfer>
      <feMerge><feMergeNode/><feMergeNode in="SourceGraphic"/></feMerge>
    </filter>
  </defs>

  <rect width="64" height="64" rx="14" fill="url(#raTileBg)"/>

  <g opacity="0.85">
    <path d="M0 44 L26 22 L40 36 L64 18 L64 64 L0 64 Z" fill="#C8252B"/>
    <path d="M0 52 L22 34 L36 46 L64 28 L64 64 L0 64 Z" fill="#A01C22"/>
  </g>

  <g opacity="0.18" stroke="#FFFFFF" stroke-width="0.6" fill="none">
    <path d="M8 18 L56 18"/>
    <path d="M8 30 L56 30"/>
    <path d="M20 4 L20 60"/>
    <path d="M44 4 L44 60"/>
  </g>

  <g filter="url(#raPinShadow)">
    <path
      d="M32 8
         C 21 8, 13 16.4, 13 26.2
         C 13 36.6, 22 44, 30 56
         C 30.9 57.4, 33.1 57.4, 34 56
         C 42 44, 51 36.6, 51 26.2
         C 51 16.4, 43 8, 32 8 Z"
      fill="url(#raPin)"
      stroke="#FFFFFF"
      stroke-width="2.2"
      stroke-linejoin="round"/>
    <circle cx="32" cy="25" r="7.2" fill="url(#raPinHole)"/>
    <circle cx="29.8" cy="22.8" r="2.1" fill="#FFFFFF" fill-opacity="0.55"/>
  </g>
</svg>
