<?xml version="1.0" standalone="no"?>
<!DOCTYPE svg PUBLIC "-//W3C//DTD SVG 20010904//EN"
 "http://www.w3.org/TR/2001/REC-SVG-20010904/DTD/svg10.dtd">
<svg version="1.0" xmlns="http://www.w3.org/2000/svg"
 width="1075.000000pt" height="168.000000pt" viewBox="0 0 1075.000000 168.000000"
 preserveAspectRatio="xMidYMid meet">
<metadata>
Created by potrace 1.16, written by Peter Selinger 2001-2019
</metadata>
<g transform="translate(0.000000,168.000000) scale(0.100000,-0.100000)"
fill="#E86A1E" stroke="none">
<path d="M0 1510 l0 -170 70 0 70 0 0 -510 0 -510 -70 0 -70 0 0 -160 0 -160
320 0 320 0 0 160 0 160 -55 0 -55 0 0 237 c0 130 2 234 5 232 2 -3 54 -117
114 -255 l110 -249 121 0 122 0 114 249 c62 137 116 251 119 254 3 3 5 -101 5
-231 l0 -236 -57 -3 -58 -3 -3 -158 -3 -157 391 0 390 0 0 160 0 160 -65 0
-65 0 0 510 0 510 65 0 65 0 0 170 0 170 -334 0 -333 0 -148 -336 -149 -336
-132 333 -132 334 -336 3 -336 2 0 -170z"/>
<path d="M2132 1513 l3 -168 73 -3 72 -3 0 -509 0 -509 -72 -3 -73 -3 0 -155
0 -155 623 -3 622 -2 0 230 0 230 -170 0 -170 0 0 -70 0 -70 -100 0 -100 0 0
180 0 180 54 0 55 0 3 -52 3 -53 160 0 160 0 0 255 0 255 -160 0 -160 0 -3
-47 -3 -48 -55 0 -54 0 0 175 0 175 100 0 100 0 0 -75 0 -75 160 0 160 0 0
245 0 245 -615 0 -615 0 2 -167z"/>
<path d="M3600 1511 l0 -171 65 0 65 0 0 -510 0 -510 -65 0 -65 0 0 -160 0
-160 423 0 c260 0 446 4 482 11 203 37 359 201 449 470 145 431 42 935 -226
1111 -29 20 -80 46 -113 59 -60 24 -61 24 -537 27 l-478 3 0 -170z m757 -215
c18 -26 40 -71 48 -99 38 -126 37 -508 -1 -680 -18 -81 -51 -152 -83 -181
l-21 -19 0 517 c0 410 3 517 13 514 6 -2 27 -26 44 -52z"/>
<path d="M5160 1510 l0 -170 60 0 60 0 0 -510 0 -510 -60 0 -60 0 0 -160 0
-160 380 0 381 0 -3 157 -3 158 -52 3 -53 3 0 170 c0 137 3 169 14 169 8 0 44
-70 90 -173 41 -94 106 -242 144 -327 l68 -155 262 -3 262 -2 0 160 0 160 -31
0 c-24 0 -41 10 -71 43 -49 53 -173 237 -228 339 l-41 76 50 50 c97 97 142
196 155 342 8 87 -10 193 -44 261 -28 54 -109 140 -169 178 -25 16 -74 39
-108 50 -60 20 -83 21 -533 21 l-470 0 0 -170z m745 -169 c97 -54 84 -249 -21
-308 -75 -43 -74 -46 -74 158 l0 181 33 -7 c17 -4 46 -15 62 -24z"/>
<path d="M6880 1510 l0 -170 65 0 65 0 0 -510 0 -510 -65 0 -65 0 0 -160 0
-160 425 0 426 0 -3 157 -3 158 -67 3 -68 3 0 509 0 510 70 0 70 0 0 170 0
170 -425 0 -425 0 0 -170z"/>
<path d="M7960 1510 l0 -170 70 0 70 0 0 -510 0 -510 -70 0 -70 0 0 -160 0
-160 431 0 c353 0 442 3 499 16 289 65 490 425 490 877 0 343 -135 630 -343
731 -111 54 -134 56 -624 56 l-453 0 0 -170z m757 -209 c18 -23 39 -65 48 -93
25 -84 38 -261 31 -416 -11 -241 -46 -390 -106 -447 l-30 -29 0 518 c0 410 3
517 13 514 6 -3 27 -24 44 -47z"/>
<path d="M9510 1510 l0 -170 70 0 70 0 0 -510 0 -510 -70 0 -70 0 0 -160 0
-160 620 0 620 0 0 230 0 230 -170 0 -170 0 0 -70 0 -70 -95 0 -95 0 0 180 0
180 55 0 55 0 0 -55 0 -56 153 3 152 3 0 255 0 255 -152 3 -153 3 0 -51 0 -50
-55 0 -55 0 0 175 0 175 95 0 95 0 0 -75 0 -75 160 0 160 0 0 245 0 245 -610
0 -610 0 0 -170z"/>
</g>
</svg>
